<?xml version="1.0" encoding="utf-8"?>
<!-- Generator: Adobe Illustrator 16.0.0, SVG Export Plug-In . SVG Version: 6.00 Build 0)  -->
<!DOCTYPE svg PUBLIC "-//W3C//DTD SVG 1.1//EN" "http://www.w3.org/Graphics/SVG/1.1/DTD/svg11.dtd">
<svg version="1.1" id="Calque_1" xmlns="http://www.w3.org/2000/svg" xmlns:xlink="http://www.w3.org/1999/xlink" x="0px" y="0px"
	 width="950px" height="188px" viewBox="0 0 950 188" enable-background="new 0 0 950 188" xml:space="preserve">
<g>
	<path fill="#418AC9" d="M893.529,52.149c-1.447-2.352-4.111-3.756-7.127-3.756h-39.781c-4.22,0-7.652,3.431-7.652,7.648v4.629
		c0,4.215,3.433,7.645,7.652,7.645h21.144c2.585-0.006,5.032-0.024,6.584-0.036c0.791-0.006,1.349-0.01,1.572-0.01l0.098,0
		l0.244-0.021l0.11-0.174c0.082-0.13,0.331-0.525-1.309-3.966c-1.083-2.263-2.536-3.573-6.786-3.573l-18.991,0.005
		c-1.228,0-2.005-0.181-2.377-0.553c-0.356-0.358-0.356-0.919-0.355-1.629v-0.211c-0.001-0.745-0.002-1.333,0.354-1.689
		c0.325-0.325,0.967-0.483,1.964-0.483l36.015-0.003c0.275,0,0.82,0.119,1.116,0.566c0.307,0.463,0.269,1.182-0.105,2.064
		l-49.273,103.225c-1.782,3.751-3.214,6.753-3.308,6.94l-0.094,0.229l0.109,0.179c0.078,0.129,0.315,0.518,3.924,0.518
		c2.378,0,4.092-0.71,5.819-4.34l50.559-105.744C894.919,57.067,894.881,54.347,893.529,52.149z"/>
	<path fill="#E94A3A" d="M921.554,36.462L921.554,36.462L921.554,36.462c-0.135-0.005-0.268-0.011-0.412-0.011h-5.575l-68.227-0.137
		v-0.011c0,0-0.812,0-1.915,0.005l-2.266-0.005c-0.195,0-0.367,0.005-0.525,0.011c-1.689,0-3.208,0.009-3.312,0.009
		c-0.243-0.009,0.332,1.617,1.29,3.617c0.957,1.999,2.309,3.222,6.549,3.208v-0.01l59.969,0.139v0.005h3l5.094,0.013l0.005-0.013
		h4.306c0.767-0.051,2.535,0.586,1.437,3.162l-1.098,2.322c-0.595,1.246-1.355,2.852-2.509,5.292l-0.041,0.094
		c-0.188,0.391-0.38,0.806-0.589,1.245l-49.47,104.895c-1.705,3.621-2.239,3.445-5.168,3.445c-1.981,0-3.753,0.176-2.039-3.445
		l49.188-103.515c0.033-0.083,0.06-0.158,0.098-0.241c1.002-2.057,2.742-5.645,2.822-5.811c0.118-0.214-1.606-0.515-3.812-0.415
		c-2.267,0.102-3.997,0.607-5.522,3.567c-0.006,0-0.006,0-0.006,0.005l-0.026,0.054c-0.135,0.262-0.269,0.543-0.397,0.846
		l-48.354,102.829c-4.275,8.297-2.231,11.764,2.863,11.764h6.297c3.998,0,7.502-1.002,9.044-4.275l50.867-107.101l1.462-3.063
		l3.611-7.558C930.921,41.987,926.969,36.719,921.554,36.462"/>
</g>
<g>
	<path fill="#418AC9" d="M305.393,153.682c-0.851-1.414-1.967-2.133-3.318-2.133c-0.757,0-1.514,0.227-2.401,0.723
		c-2.583,1.588-10.107,4.701-15.792,4.701c-6.623,0-7.623-2.592-7.623-11.508v-45.186h23.72c2.594,0,4.405-1.812,4.405-4.408v-2.402
		c0-2.513-1.894-4.408-4.405-4.408h-23.72V70.707c0-2.426-2.012-4.399-4.518-4.399h-0.002l-3.03,0.177
		c-2.512,0-4.407,1.895-4.407,4.407v18.169h-6.696c-2.523,0-4.218,1.548-4.218,3.851v2.959c0,2.884,1.458,4.408,4.218,4.408h6.696
		v45.742c0,12.07,1.427,22.906,18.654,22.906c10.692,0,19.278-4.557,22.639-7.229c1.948-1.344,2.374-3.553,1.107-5.771
		L305.393,153.682z"/>
	<path fill="#418AC9" d="M203.024,87.216c-15.572,0-25.195,5.166-26.191,5.73c-2.111,0.895-2.942,2.896-2.155,5.256l0.918,2.205
		c0.575,1.891,1.973,3.019,3.737,3.019c0.522,0,1.069-0.102,1.56-0.289c0.279-0.092,0.724-0.277,1.322-0.531
		c3.069-1.305,10.256-4.362,20.252-4.362c10.991,0,13.999,4.069,14.263,19.681c-3.576-1.047-9.969-2.584-16.668-2.584
		c-19.79,0-33.085,10.842-33.085,26.979c0,15.668,10.791,26.609,26.24,26.609c10.653,0,18.908-4.553,24.146-8.605l0.333,2.979
		l0.058,0.285c0.659,2.316,2.053,3.49,4.142,3.49h2.222c2.388,0,4.405-2.016,4.405-4.402v-41.08
		C228.522,103.914,228.522,87.216,203.024,87.216z M200.062,126.002c7.688,0,14.033,2.146,16.689,3.203v18.332
		c-3.354,3.994-12.32,10.178-22.609,10.178c-9.318,0-15.579-6.262-15.579-15.582C178.563,132.334,187.002,126.002,200.062,126.002z"
		/>
	<path fill="#418AC9" d="M339.022,89.062h-3.332c-2.388,0-4.405,2.019-4.405,4.408v69.205c0,2.551,1.697,4.402,4.036,4.402h3.701
		c2.674,0,4.402-1.729,4.402-4.402V93.469C343.424,91.08,341.408,89.062,339.022,89.062z"/>
	<path fill="#418AC9" d="M130.5,33.551h-3.7c-2.389,0-4.406,2.019-4.406,4.408v105.744L36.98,32.482L36.379,31.7h-4.133
		c-2.722,0-4.775,1.895-4.775,4.408v126.566c0,2.387,2.018,4.402,4.406,4.402h3.516c2.387,0,4.403-2.016,4.403-4.402V55.88
		c34.377,45.439,59.055,77.829,73.358,96.288c13,16.777,13.078,16.777,14.371,16.777h0.002l2.417-0.018
		c2.921,0,4.962-1.812,4.962-4.408V37.959C134.906,35.569,132.888,33.551,130.5,33.551z"/>
	<path fill="#418AC9" d="M410.444,87.216c-21.611,0-39.192,18.243-39.192,40.667c0,23.016,17.215,41.045,39.192,41.045
		c21.61,0,39.191-18.414,39.191-41.045C449.635,105.459,432.054,87.216,410.444,87.216z M410.444,157.338
		c-15.272,0-27.236-12.939-27.236-29.455c0-16.205,11.963-28.897,27.236-28.897c14.916,0,27.051,12.963,27.051,28.897
		C437.495,144.398,425.612,157.338,410.444,157.338z"/>
	<path fill="#418AC9" d="M514.244,87.216c-12.186,0-21.136,5.66-25.765,9.454l-0.366-3.959l-0.018-0.133
		c-0.369-2.168-1.977-3.516-4.194-3.516h-1.851c-2.531,0-4.591,1.977-4.591,4.408v69.205c0,2.551,1.698,4.402,4.037,4.402h3.516
		c2.677,0,4.406-1.729,4.406-4.402v-51.975c2.086-2.236,11.535-11.528,24.458-11.528c13.097,0,20.02,8.265,20.02,23.901v39.602
		c0,2.387,2.018,4.402,4.405,4.402h3.333c2.387,0,4.402-2.016,4.402-4.402v-39.602c0-11.15-2.551-19.889-7.581-25.973
		C533.031,90.542,524.887,87.216,514.244,87.216z"/>
	<path fill="#418AC9" d="M337.355,40.212c-4.572,0-8.292,3.802-8.292,8.476c0,4.472,3.72,8.109,8.292,8.109
		c4.572,0,8.291-3.638,8.291-8.109C345.646,44.014,341.927,40.212,337.355,40.212z"/>
	<path fill="#418AC9" d="M608.43,87.216c-15.273,0-24.539,4.794-26.189,5.73c-2.112,0.894-2.943,2.895-2.157,5.255l0.918,2.207
		c0.578,1.89,1.975,3.017,3.736,3.017c0.523,0,1.069-0.102,1.56-0.289c0.278-0.092,0.723-0.276,1.322-0.531
		c3.07-1.305,10.258-4.362,20.254-4.362c10.988,0,13.995,4.068,14.26,19.681c-3.577-1.047-9.971-2.584-16.667-2.584
		c-19.788,0-33.083,10.842-33.083,26.979c0,15.668,10.79,26.609,26.238,26.609c10.657,0,18.911-4.551,24.147-8.604l0.333,2.977
		l0.057,0.283c0.655,2.316,2.049,3.492,4.142,3.492h2.222c2.39,0,4.408-2.016,4.408-4.402v-41.08
		C633.93,103.914,633.93,87.216,608.43,87.216z M605.466,126.002c7.698,0,14.036,2.146,16.688,3.203v18.332
		c-3.354,3.994-12.317,10.178-22.607,10.178c-9.317,0-15.578-6.262-15.578-15.582C583.969,132.334,592.407,126.002,605.466,126.002z
		"/>
	<path fill="#418AC9" d="M750.596,87.216c-22.279,0-38.45,17.103-38.45,40.667c0,24.166,15.812,41.045,38.45,41.045
		c12.368,0,24.353-5.391,28.25-9.283c2.005-2.014,1.92-4.236,0.951-5.537l-1.853-2.596c-0.825-1.152-1.819-1.738-2.957-1.738
		c-1.041,0-1.962,0.475-3.111,1.238c-4.452,2.973-11.66,6.518-20.724,6.518c-14.195,0-25.107-10.35-26.708-25.238h56.868
		c4.776,0,4.776-6.227,4.776-9.219C786.089,102.296,771.162,87.216,750.596,87.216z M773.886,121.63h-49.22
		c1.766-13.791,12.121-23.016,25.93-23.016C766.746,98.614,773.208,110.891,773.886,121.63z"/>
	<path fill="#418AC9" d="M677.716,34.67h-3.33c-2.388,0-4.405,2.019-4.405,4.408v124.715c0,2.551,1.696,4.402,4.034,4.402h3.701
		c2.676,0,4.405-1.729,4.405-4.402V39.078C682.121,36.688,680.104,34.67,677.716,34.67z"/>
</g>
</svg>
